<svg id="Capa_1" enable-background="new 0 0 512 512" height="512" viewBox="0 0 512 512" width="512" xmlns="http://www.w3.org/2000/svg" xmlns:xlink="http://www.w3.org/1999/xlink"><linearGradient id="SVGID_1_" gradientUnits="userSpaceOnUse" x1="256" x2="256" y1="512" y2="0"><stop offset="0" stop-color="#fd5900"/><stop offset="1" stop-color="#ffde00"/></linearGradient><g><g><g><path d="m477.743 212.306c-17.636-89.417-88.632-160.413-178.049-178.049-4.83-19.641-22.583-34.257-43.694-34.257s-38.864 14.616-43.694 34.257c-89.417 17.636-160.413 88.632-178.049 178.049-19.641 4.83-34.257 22.583-34.257 43.694s14.616 38.864 34.257 43.694c17.636 89.417 88.632 160.413 178.049 178.049 4.83 19.641 22.583 34.257 43.694 34.257s38.864-14.616 43.694-34.257c89.417-17.636 160.413-88.632 178.049-178.049 19.641-4.83 34.257-22.583 34.257-43.694s-14.616-38.864-34.257-43.694zm-221.743-182.306c8.271 0 15 6.729 15 15s-6.729 15-15 15-15-6.729-15-15 6.729-15 15-15zm-29.155 211c3.657-33.098 18.486-61.917 29.181-78.976 10.7 17.015 25.501 45.762 29.138 78.976zm58.31 30c-3.657 33.098-18.486 61.917-29.181 78.976-10.7-17.015-25.501-45.762-29.138-78.976zm-69.819-206.747c5.109 10.746 14.353 19.155 25.664 23.167v34.418c-62.479 6.939-112.223 56.683-119.162 119.162h-34.418c-4.012-11.311-12.421-20.555-23.167-25.664 15.999-75.325 75.758-135.084 151.083-151.083zm-18.646 176.747h-44.614c5.797-40.351 34.617-73.367 72.681-85.254-11.756 20.701-24.953 50.784-28.067 85.254zm28.067 115.254c-38.065-11.887-66.884-44.904-72.681-85.254h44.614c3.114 34.47 16.311 64.553 28.067 85.254zm-179.757-85.254c-8.271 0-15-6.729-15-15s6.729-15 15-15 15 6.729 15 15-6.729 15-15 15zm170.336 176.747c-75.325-15.999-135.084-75.758-151.083-151.083 10.746-5.109 19.155-14.353 23.167-25.664h34.418c6.939 62.479 56.683 112.223 119.162 119.162v34.418c-11.311 4.012-20.555 12.421-25.664 23.167zm40.664 34.253c-8.271 0-15-6.729-15-15s6.729-15 15-15 15 6.729 15 15-6.729 15-15 15zm40.664-34.253c-5.109-10.746-14.353-19.155-25.664-23.167v-34.418c62.479-6.939 112.223-56.683 119.162-119.162h34.418c4.012 11.311 12.42 20.555 23.167 25.664-15.999 75.325-75.758 135.084-151.083 151.083zm18.646-176.747h44.614c-5.797 40.351-34.617 73.367-72.681 85.254 11.756-20.701 24.953-50.784 28.067-85.254zm-28.067-115.254c38.065 11.887 66.884 44.904 72.681 85.254h-44.614c-3.114-34.47-16.311-64.553-28.067-85.254zm137.337 85.254h-34.418c-6.939-62.479-56.683-112.223-119.162-119.162v-34.418c11.311-4.012 20.555-12.42 25.664-23.167 75.325 15.999 135.084 75.758 151.083 151.083-10.746 5.109-19.155 14.353-23.167 25.664zm42.42 30c-8.271 0-15-6.729-15-15s6.729-15 15-15 15 6.729 15 15-6.729 15-15 15z" fill="url(#SVGID_1_)"/></g></g></g></svg>